<svg width="25" height="24" viewBox="0 0 25 24" fill="none" xmlns="http://www.w3.org/2000/svg">
<mask id="mask0_102_5785" style="mask-type:alpha" maskUnits="userSpaceOnUse" x="0" y="0" width="25" height="24">
<rect width="24.6386" height="24" fill="#D9D9D9"/>
</mask>
<g mask="url(#mask0_102_5785)">
<path d="M6.98043 13L9.95759 15.9C10.1458 16.0833 10.2399 16.3167 10.2399 16.6C10.2399 16.8833 10.1458 17.1167 9.95759 17.3C9.76938 17.4833 9.52984 17.575 9.23896 17.575C8.94809 17.575 8.70855 17.4833 8.52034 17.3L3.79794 12.7C3.69528 12.6 3.62256 12.4917 3.57979 12.375C3.53701 12.2583 3.51562 12.1333 3.51562 12C3.51562 11.8667 3.53701 11.7417 3.57979 11.625C3.62256 11.5083 3.69528 11.4 3.79794 11.3L8.52034 6.69999C8.70855 6.51665 8.94809 6.42499 9.23896 6.42499C9.52984 6.42499 9.76938 6.51665 9.95759 6.69999C10.1458 6.88332 10.2399 7.11665 10.2399 7.39999C10.2399 7.68332 10.1458 7.91665 9.95759 8.09999L6.98043 11H20.5316C20.8225 11 21.0663 11.0958 21.2631 11.2875C21.4599 11.4792 21.5583 11.7167 21.5583 12C21.5583 12.2833 21.4599 12.5208 21.2631 12.7125C21.0663 12.9042 20.8225 13 20.5316 13H6.98043Z" fill="white"/>
</g>
</svg>
