<svg width="20" height="20" viewBox="0 0 20 20" fill="none" xmlns="http://www.w3.org/2000/svg">
<path d="M0 18H14V19C14 19.2833 13.9042 19.5208 13.7125 19.7125C13.5208 19.9042 13.2833 20 13 20H1C0.716667 20 0.479167 19.9042 0.2875 19.7125C0.0958333 19.5208 0 19.2833 0 19V18ZM0 16V15C0 14.7167 0.0958333 14.4792 0.2875 14.2875C0.479167 14.0958 0.716667 14 1 14H5V13C5 12.7167 5.09583 12.4792 5.2875 12.2875C5.47917 12.0958 5.71667 12 6 12H8C8.28333 12 8.52083 12.0958 8.7125 12.2875C8.90417 12.4792 9 12.7167 9 13V14H13C13.2833 14 13.5208 14.0958 13.7125 14.2875C13.9042 14.4792 14 14.7167 14 15V16H0ZM16 13.9C15.4 13.2167 14.9167 12.5417 14.55 11.875C14.1833 11.2083 14 10.4 14 9.45V1C14 0.716667 14.0958 0.479167 14.2875 0.2875C14.4792 0.0958333 14.7167 0 15 0H19C19.2833 0 19.5208 0.0958333 19.7125 0.2875C19.9042 0.479167 20 0.716667 20 1V9.45C20 10.4 19.8208 11.2125 19.4625 11.8875C19.1042 12.5625 18.6167 13.2333 18 13.9V18H19C19.2833 18 19.5208 18.0958 19.7125 18.2875C19.9042 18.4792 20 18.7167 20 19C20 19.2833 19.9042 19.5208 19.7125 19.7125C19.5208 19.9042 19.2833 20 19 20H17C16.7167 20 16.4792 19.9042 16.2875 19.7125C16.0958 19.5208 16 19.2833 16 19V13.9ZM16 6H18V2H16V6ZM17 12.05C17.3 11.7 17.5417 11.3 17.725 10.85C17.9083 10.4 18 9.93333 18 9.45V8H16V9.45C16 9.93333 16.0833 10.4 16.25 10.85C16.4167 11.3 16.6667 11.7 17 12.05Z" fill="white"/>
</svg>
