<svg width="20" height="21" viewBox="0 0 20 21" fill="none" xmlns="http://www.w3.org/2000/svg">
<mask id="mask0_102_6044" style="mask-type:alpha" maskUnits="userSpaceOnUse" x="0" y="0" width="20" height="21">
<rect y="0.5" width="20" height="20" fill="#D9D9D9"/>
</mask>
<g mask="url(#mask0_102_6044)">
<path d="M4.42247 18.4167C4.0015 18.4167 3.64518 18.2708 3.35352 17.9792C3.06185 17.6875 2.91602 17.3312 2.91602 16.9102V5.75646C2.91602 5.33548 3.06185 4.97916 3.35352 4.6875C3.64518 4.39583 4.0015 4.25 4.42247 4.25H5.57622V3.12812C5.57622 2.94548 5.6374 2.79298 5.75977 2.67062C5.88213 2.5484 6.03463 2.48729 6.21727 2.48729C6.40004 2.48729 6.55254 2.5484 6.67477 2.67062C6.79713 2.79298 6.85831 2.94548 6.85831 3.12812V4.25H13.1725V3.11229C13.1725 2.93493 13.2323 2.78639 13.3518 2.66666C13.4716 2.54708 13.6201 2.48729 13.7975 2.48729C13.9748 2.48729 14.1233 2.54708 14.2429 2.66666C14.3626 2.78639 14.4225 2.93493 14.4225 3.11229V4.25H15.5762C15.9972 4.25 16.3535 4.39583 16.6452 4.6875C16.9368 4.97916 17.0827 5.33548 17.0827 5.75646V16.9102C17.0827 17.3312 16.9368 17.6875 16.6452 17.9792C16.3535 18.2708 15.9972 18.4167 15.5762 18.4167H4.42247ZM4.42247 17.1667H15.5762C15.6404 17.1667 15.6991 17.1399 15.7525 17.0865C15.8059 17.0331 15.8327 16.9744 15.8327 16.9102V9.08979H4.16602V16.9102C4.16602 16.9744 4.19275 17.0331 4.24622 17.0865C4.29956 17.1399 4.35831 17.1667 4.42247 17.1667ZM4.16602 7.83979H15.8327V5.75646C15.8327 5.69229 15.8059 5.63354 15.7525 5.58021C15.6991 5.52673 15.6404 5.5 15.5762 5.5H4.42247C4.35831 5.5 4.29956 5.52673 4.24622 5.58021C4.19275 5.63354 4.16602 5.69229 4.16602 5.75646V7.83979ZM9.99935 12.2308C9.79532 12.2308 9.62143 12.159 9.47768 12.0152C9.33407 11.8716 9.26227 11.6977 9.26227 11.4935C9.26227 11.2895 9.33407 11.1156 9.47768 10.9719C9.62143 10.8283 9.79532 10.7565 9.99935 10.7565C10.2034 10.7565 10.3773 10.8283 10.521 10.9719C10.6646 11.1156 10.7364 11.2895 10.7364 11.4935C10.7364 11.6977 10.6646 11.8716 10.521 12.0152C10.3773 12.159 10.2034 12.2308 9.99935 12.2308ZM6.66602 12.2308C6.46199 12.2308 6.2881 12.159 6.14435 12.0152C6.00074 11.8716 5.92893 11.6977 5.92893 11.4935C5.92893 11.2895 6.00074 11.1156 6.14435 10.9719C6.2881 10.8283 6.46199 10.7565 6.66602 10.7565C6.87004 10.7565 7.04393 10.8283 7.18768 10.9719C7.33129 11.1156 7.4031 11.2895 7.4031 11.4935C7.4031 11.6977 7.33129 11.8716 7.18768 12.0152C7.04393 12.159 6.87004 12.2308 6.66602 12.2308ZM13.3327 12.2308C13.1287 12.2308 12.9548 12.159 12.811 12.0152C12.6674 11.8716 12.5956 11.6977 12.5956 11.4935C12.5956 11.2895 12.6674 11.1156 12.811 10.9719C12.9548 10.8283 13.1287 10.7565 13.3327 10.7565C13.5367 10.7565 13.7106 10.8283 13.8543 10.9719C13.998 11.1156 14.0698 11.2895 14.0698 11.4935C14.0698 11.6977 13.998 11.8716 13.8543 12.0152C13.7106 12.159 13.5367 12.2308 13.3327 12.2308ZM9.99935 15.5C9.79532 15.5 9.62143 15.4281 9.47768 15.2844C9.33407 15.1408 9.26227 14.9669 9.26227 14.7629C9.26227 14.5587 9.33407 14.3849 9.47768 14.2412C9.62143 14.0975 9.79532 14.0256 9.99935 14.0256C10.2034 14.0256 10.3773 14.0975 10.521 14.2412C10.6646 14.3849 10.7364 14.5587 10.7364 14.7629C10.7364 14.9669 10.6646 15.1408 10.521 15.2844C10.3773 15.4281 10.2034 15.5 9.99935 15.5ZM6.66602 15.5C6.46199 15.5 6.2881 15.4281 6.14435 15.2844C6.00074 15.1408 5.92893 14.9669 5.92893 14.7629C5.92893 14.5587 6.00074 14.3849 6.14435 14.2412C6.2881 14.0975 6.46199 14.0256 6.66602 14.0256C6.87004 14.0256 7.04393 14.0975 7.18768 14.2412C7.33129 14.3849 7.4031 14.5587 7.4031 14.7629C7.4031 14.9669 7.33129 15.1408 7.18768 15.2844C7.04393 15.4281 6.87004 15.5 6.66602 15.5ZM13.3327 15.5C13.1287 15.5 12.9548 15.4281 12.811 15.2844C12.6674 15.1408 12.5956 14.9669 12.5956 14.7629C12.5956 14.5587 12.6674 14.3849 12.811 14.2412C12.9548 14.0975 13.1287 14.0256 13.3327 14.0256C13.5367 14.0256 13.7106 14.0975 13.8543 14.2412C13.998 14.3849 14.0698 14.5587 14.0698 14.7629C14.0698 14.9669 13.998 15.1408 13.8543 15.2844C13.7106 15.4281 13.5367 15.5 13.3327 15.5Z" fill="white"/>
</g>
</svg>
