<svg width="25" height="24" viewBox="0 0 25 24" fill="none" xmlns="http://www.w3.org/2000/svg">
<mask id="mask0_102_6226" style="mask-type:alpha" maskUnits="userSpaceOnUse" x="0" y="0" width="25" height="24">
<rect x="0.75" width="24" height="24" fill="#D9D9D9"/>
</mask>
<g mask="url(#mask0_102_6226)">
<path d="M6.7885 17.5L4.7865 19.5018C4.502 19.7864 4.17475 19.8509 3.80475 19.6952C3.43492 19.5394 3.25 19.2589 3.25 18.8538V4.30775C3.25 3.80258 3.425 3.375 3.775 3.025C4.125 2.675 4.55258 2.5 5.05775 2.5H20.4423C20.9474 2.5 21.375 2.675 21.725 3.025C22.075 3.375 22.25 3.80258 22.25 4.30775V15.6923C22.25 16.1974 22.075 16.625 21.725 16.975C21.375 17.325 20.9474 17.5 20.4423 17.5H6.7885ZM6.15 16H20.4423C20.5193 16 20.5898 15.9679 20.6538 15.9038C20.7179 15.8398 20.75 15.7692 20.75 15.6923V4.30775C20.75 4.23075 20.7179 4.16025 20.6538 4.09625C20.5898 4.03208 20.5193 4 20.4423 4H5.05775C4.98075 4 4.91025 4.03208 4.84625 4.09625C4.78208 4.16025 4.75 4.23075 4.75 4.30775V17.3848L6.15 16Z" fill="white"/>
</g>
</svg>
