<svg width="24" height="24" viewBox="0 0 24 24" fill="none" xmlns="http://www.w3.org/2000/svg">
<mask id="mask0_102_6031" style="mask-type:alpha" maskUnits="userSpaceOnUse" x="0" y="0" width="24" height="24">
<rect width="24" height="24" fill="#D9D9D9"/>
</mask>
<g mask="url(#mask0_102_6031)">
<path d="M13 17C14 17 14.8708 16.675 15.6125 16.025C16.3542 15.375 16.8 14.5667 16.95 13.6C16.9833 13.4333 16.9458 13.2917 16.8375 13.175C16.7292 13.0583 16.5833 13 16.4 13H9.6C9.43333 13 9.29167 13.0583 9.175 13.175C9.05833 13.2917 9.01667 13.4333 9.05 13.6C9.2 14.5667 9.64583 15.375 10.3875 16.025C11.1292 16.675 12 17 13 17ZM13 22C11.75 22 10.5792 21.7625 9.4875 21.2875C8.39583 20.8125 7.44583 20.1708 6.6375 19.3625C5.82917 18.5542 5.1875 17.6042 4.7125 16.5125C4.2375 15.4208 4 14.25 4 13V4C4 3.45 4.19583 2.97917 4.5875 2.5875C4.97917 2.19583 5.45 2 6 2H20C20.55 2 21.0208 2.19583 21.4125 2.5875C21.8042 2.97917 22 3.45 22 4V13C22 14.25 21.7625 15.4208 21.2875 16.5125C20.8125 17.6042 20.1708 18.5542 19.3625 19.3625C18.5542 20.1708 17.6042 20.8125 16.5125 21.2875C15.4208 21.7625 14.25 22 13 22ZM13 20C14.9333 20 16.5833 19.3167 17.95 17.95C19.3167 16.5833 20 14.9333 20 13V4H6V13C6 14.9333 6.68333 16.5833 8.05 17.95C9.41667 19.3167 11.0667 20 13 20ZM10 7C9.55 7 9.15417 7.13333 8.8125 7.4C8.47083 7.66667 8.23333 8 8.1 8.4C8.05 8.55 8.075 8.6875 8.175 8.8125C8.275 8.9375 8.41667 9 8.6 9H11.4C11.5667 9 11.7 8.9375 11.8 8.8125C11.9 8.6875 11.9333 8.55 11.9 8.4C11.7667 8 11.5292 7.66667 11.1875 7.4C10.8458 7.13333 10.45 7 10 7ZM16 7C15.55 7 15.1542 7.13333 14.8125 7.4C14.4708 7.66667 14.2333 8 14.1 8.4C14.05 8.55 14.075 8.6875 14.175 8.8125C14.275 8.9375 14.4167 9 14.6 9H17.4C17.5667 9 17.7 8.9375 17.8 8.8125C17.9 8.6875 17.9333 8.55 17.9 8.4C17.7667 8 17.5292 7.66667 17.1875 7.4C16.8458 7.13333 16.45 7 16 7Z" fill="white"/>
</g>
</svg>
