<svg width="25" height="24" viewBox="0 0 25 24" fill="none" xmlns="http://www.w3.org/2000/svg">
<mask id="mask0_102_6221" style="mask-type:alpha" maskUnits="userSpaceOnUse" x="0" y="0" width="25" height="24">
<rect x="0.25" width="24" height="24" fill="#D9D9D9"/>
</mask>
<g mask="url(#mask0_102_6221)">
<path d="M12.25 13.65L13.5 14.6173C13.6705 14.7544 13.8513 14.7586 14.0423 14.6298C14.2333 14.5009 14.2935 14.3294 14.223 14.1152L13.7193 12.523L15.1635 11.4058C15.3275 11.2686 15.3743 11.0987 15.3038 10.8962C15.2333 10.6936 15.091 10.5923 14.877 10.5923H13.2153L12.677 8.94625C12.6065 8.73208 12.4642 8.625 12.25 8.625C12.0358 8.625 11.8935 8.73208 11.823 8.94625L11.2848 10.5923H9.598C9.384 10.5923 9.24433 10.6936 9.179 10.8962C9.1135 11.0987 9.16283 11.2686 9.327 11.4058L10.7308 12.523L10.227 14.15C10.1565 14.364 10.21 14.5355 10.3875 14.6645C10.565 14.7933 10.7442 14.7892 10.925 14.652L12.25 13.65ZM4.55775 19.5C4.05908 19.5 3.63308 19.3234 3.27975 18.9703C2.92658 18.6169 2.75 18.1909 2.75 17.6923V14.952C2.75 14.7878 2.79717 14.6423 2.8915 14.5155C2.98567 14.3885 3.11158 14.3019 3.26925 14.2558C3.70775 14.0519 4.06417 13.7493 4.3385 13.348C4.61283 12.9468 4.75 12.4975 4.75 12C4.75 11.5025 4.61283 11.0532 4.3385 10.652C4.06417 10.2507 3.70775 9.94808 3.26925 9.74425C3.11158 9.69808 2.98567 9.6115 2.8915 9.4845C2.79717 9.35767 2.75 9.21217 2.75 9.048V6.30775C2.75 5.80908 2.92658 5.38308 3.27975 5.02975C3.63308 4.67658 4.05908 4.5 4.55775 4.5H19.9423C20.4409 4.5 20.8669 4.67658 21.2203 5.02975C21.5734 5.38308 21.75 5.80908 21.75 6.30775V9.048C21.75 9.21217 21.7028 9.35767 21.6085 9.4845C21.5143 9.6115 21.3884 9.69808 21.2307 9.74425C20.7922 9.94808 20.4358 10.2507 20.1615 10.652C19.8872 11.0532 19.75 11.5025 19.75 12C19.75 12.4975 19.8872 12.9468 20.1615 13.348C20.4358 13.7493 20.7922 14.0519 21.2307 14.2558C21.3884 14.3019 21.5143 14.3885 21.6085 14.5155C21.7028 14.6423 21.75 14.7878 21.75 14.952V17.6923C21.75 18.1909 21.5734 18.6169 21.2203 18.9703C20.8669 19.3234 20.4409 19.5 19.9423 19.5H4.55775Z" fill="#FF4655"/>
</g>
</svg>
