<svg width="25" height="24" viewBox="0 0 25 24" fill="none" xmlns="http://www.w3.org/2000/svg">
<mask id="mask0_102_6216" style="mask-type:alpha" maskUnits="userSpaceOnUse" x="0" y="0" width="25" height="24">
<rect x="0.75" width="24" height="24" fill="#D9D9D9"/>
</mask>
<g mask="url(#mask0_102_6216)">
<path d="M6.75 19H10.0963V13.9615C10.0963 13.7055 10.1828 13.4908 10.356 13.3175C10.5293 13.1443 10.744 13.0578 11 13.0578H14.5C14.756 13.0578 14.9707 13.1443 15.144 13.3175C15.3172 13.4908 15.4038 13.7055 15.4038 13.9615V19H18.75V10.1538C18.75 10.1026 18.7388 10.0562 18.7163 10.0145C18.6939 9.97283 18.6635 9.93592 18.625 9.90375L12.9328 5.625C12.8814 5.58017 12.8205 5.55775 12.75 5.55775C12.6795 5.55775 12.6186 5.58017 12.5673 5.625L6.875 9.90375C6.8365 9.93592 6.80608 9.97283 6.78375 10.0145C6.76125 10.0562 6.75 10.1026 6.75 10.1538V19ZM5.25 19V10.1538C5.25 9.86758 5.314 9.5965 5.442 9.3405C5.57017 9.08433 5.74717 8.87342 5.973 8.70775L11.6655 4.41925C11.9813 4.17825 12.3423 4.05775 12.7485 4.05775C13.1547 4.05775 13.5167 4.17825 13.8345 4.41925L19.527 8.70775C19.7528 8.87342 19.9298 9.08433 20.058 9.3405C20.186 9.5965 20.25 9.86758 20.25 10.1538V19C20.25 19.409 20.1023 19.7613 19.8068 20.0568C19.5113 20.3523 19.159 20.5 18.75 20.5H14.8077C14.5516 20.5 14.3369 20.4133 14.1637 20.24C13.9904 20.0668 13.9038 19.8522 13.9038 19.596V14.5578H11.5963V19.596C11.5963 19.8522 11.5096 20.0668 11.3363 20.24C11.1631 20.4133 10.9484 20.5 10.6923 20.5H6.75C6.341 20.5 5.98875 20.3523 5.69325 20.0568C5.39775 19.7613 5.25 19.409 5.25 19Z" fill="white"/>
</g>
</svg>
