<svg width="24" height="24" viewBox="0 0 24 24" fill="none" xmlns="http://www.w3.org/2000/svg">
<path d="M12 2.32031C11.0625 2.32031 9.75 2.48438 9 2.8125V3.65625H6V6.23438H18V3.65625H15V2.8125C14.25 2.48438 12.9375 2.32031 12 2.32031ZM9.75 4.21875C10.1625 4.21875 10.5 4.55437 10.5 4.96875C10.5 5.38125 10.1625 5.71875 9.75 5.71875C9.3375 5.71875 9 5.38125 9 4.96875C9 4.55437 9.3375 4.21875 9.75 4.21875ZM14.25 4.21875C14.6625 4.21875 15 4.55437 15 4.96875C15 5.38125 14.6625 5.71875 14.25 5.71875C13.8375 5.71875 13.5 5.38125 13.5 4.96875C13.5 4.55437 13.8375 4.21875 14.25 4.21875ZM5.25 7.07812V7.92188H4.5V8.76562H19.5V7.92188H18.75V7.07812H5.25ZM3.75 9.51562V10.3594H20.25V9.51562H3.75ZM4.5 11.2031V14.5781H9.78281C10.1625 12.1406 13.8375 12.1406 14.2172 14.5781H19.5V11.2031H4.5ZM4.5 15.4219V16.8281H9V17.6719H4.5V23.25H9.75V15.4219H4.5ZM14.25 15.4219V23.25H19.5V17.6719H15V16.8281H19.5V15.4219H14.25Z" fill="white"/>
</svg>
