<svg width="25" height="24" viewBox="0 0 25 24" fill="none" xmlns="http://www.w3.org/2000/svg">
<mask id="mask0_102_6231" style="mask-type:alpha" maskUnits="userSpaceOnUse" x="0" y="0" width="25" height="24">
<rect x="0.25" width="24" height="24" fill="#D9D9D9"/>
</mask>
<g mask="url(#mask0_102_6231)">
<path d="M3.39293 9.37125L6.48143 3.89225C6.5751 3.72825 6.68893 3.60933 6.82293 3.5355C6.9571 3.46183 7.10618 3.425 7.27018 3.425C7.43418 3.425 7.5831 3.46183 7.71693 3.5355C7.85093 3.60933 7.96477 3.72825 8.05843 3.89225L11.1469 9.37125C11.2303 9.52308 11.2678 9.67492 11.2594 9.82675C11.2511 9.97858 11.2084 10.1228 11.1314 10.2595C11.0564 10.3952 10.9514 10.5044 10.8164 10.5872C10.6816 10.6701 10.5284 10.7115 10.3569 10.7115H4.18293C4.01143 10.7115 3.85818 10.6701 3.72318 10.5872C3.58835 10.5044 3.48343 10.3952 3.40843 10.2595C3.33143 10.1228 3.28877 9.97858 3.28043 9.82675C3.2721 9.67492 3.3096 9.52308 3.39293 9.37125ZM7.27943 20.7595C6.23727 20.7595 5.3501 20.3935 4.61793 19.6615C3.88593 18.9295 3.51993 18.0437 3.51993 17.004C3.51993 15.9488 3.88593 15.0578 4.61793 14.3308C5.3501 13.6039 6.23727 13.2405 7.27943 13.2405C8.32177 13.2405 9.20893 13.6065 9.94093 14.3385C10.6731 15.0705 11.0392 15.9577 11.0392 17C11.0392 18.0423 10.6731 18.9295 9.94093 19.6615C9.20893 20.3935 8.32177 20.7595 7.27943 20.7595ZM7.27943 19.2598C7.90643 19.2598 8.43977 19.0398 8.87943 18.6C9.31927 18.1603 9.53918 17.627 9.53918 17C9.53918 16.373 9.31927 15.8397 8.87943 15.4C8.43977 14.9602 7.90643 14.7402 7.27943 14.7402C6.6526 14.7402 6.11927 14.9602 5.67943 15.4C5.23977 15.8397 5.01993 16.373 5.01993 17C5.01993 17.627 5.23977 18.1603 5.67943 18.6C6.11927 19.0398 6.6526 19.2598 7.27943 19.2598ZM5.19868 9.2115H9.35068L7.26993 5.56725L5.19868 9.2115ZM13.5104 19.8558V14.1442C13.5104 13.8881 13.597 13.6734 13.7702 13.5002C13.9434 13.3271 14.158 13.2405 14.4142 13.2405H20.1257C20.3817 13.2405 20.5964 13.3271 20.7697 13.5002C20.9429 13.6734 21.0294 13.8881 21.0294 14.1442V19.8558C21.0294 20.1119 20.9429 20.3266 20.7697 20.4997C20.5964 20.6729 20.3817 20.7595 20.1257 20.7595H14.4142C14.158 20.7595 13.9434 20.6729 13.7702 20.4997C13.597 20.3266 13.5104 20.1119 13.5104 19.8558ZM15.0102 19.2598H19.5294V14.7402H15.0102V19.2598ZM16.6872 10.2288L15.5929 9.3155C14.5841 8.48333 13.8454 7.77692 13.3767 7.19625C12.908 6.61542 12.6737 5.98017 12.6737 5.2905C12.6737 4.61733 12.9026 4.0545 13.3604 3.602C13.8181 3.14933 14.3937 2.923 15.0872 2.923C15.5115 2.923 15.9083 3.024 16.2774 3.226C16.6468 3.428 16.9776 3.71867 17.2699 4.098C17.5623 3.725 17.8963 3.43592 18.2719 3.23075C18.6474 3.02558 19.0442 2.923 19.4622 2.923C20.1469 2.923 20.7187 3.15442 21.1777 3.61725C21.6365 4.08008 21.8659 4.64742 21.8659 5.31925C21.8659 6.00258 21.6317 6.63142 21.1632 7.20575C20.6945 7.78008 19.9558 8.48333 18.9469 9.3155L17.8527 10.2288C17.6882 10.3763 17.4939 10.45 17.2697 10.45C17.0455 10.45 16.8514 10.3763 16.6872 10.2288ZM17.2699 8.75C18.4508 7.80133 19.262 7.08342 19.7037 6.59625C20.1454 6.10908 20.3662 5.6905 20.3662 5.3405C20.3662 5.0725 20.2844 4.85258 20.1209 4.68075C19.9574 4.50892 19.7449 4.423 19.4834 4.423C19.2924 4.423 19.1062 4.4785 18.9247 4.5895C18.7434 4.70033 18.5039 4.9045 18.2064 5.202L17.2699 6.10775L16.3334 5.202C16.0296 4.89817 15.7888 4.69233 15.6112 4.5845C15.4337 4.47683 15.2488 4.423 15.0564 4.423C14.7884 4.423 14.5744 4.50408 14.4142 4.66625C14.2538 4.82842 14.1737 5.04675 14.1737 5.32125C14.1737 5.68408 14.3945 6.10908 14.8362 6.59625C15.2779 7.08342 16.0891 7.80133 17.2699 8.75Z" fill="white"/>
</g>
</svg>
