<svg width="20" height="20" viewBox="0 0 20 20" fill="none" xmlns="http://www.w3.org/2000/svg">
<mask id="mask0_102_6049" style="mask-type:alpha" maskUnits="userSpaceOnUse" x="0" y="0" width="20" height="20">
<rect width="20" height="20" fill="#D9D9D9"/>
</mask>
<g mask="url(#mask0_102_6049)">
<path d="M10.0009 16.2612C11.6312 14.8018 12.8788 13.4019 13.7436 12.0617C14.6085 10.7214 15.0409 9.54749 15.0409 8.53999C15.0409 7.02083 14.5583 5.77194 13.593 4.79333C12.6277 3.81472 11.4304 3.32541 10.0009 3.32541C8.57149 3.32541 7.37413 3.81472 6.40885 4.79333C5.44358 5.77194 4.96094 7.02083 4.96094 8.53999C4.96094 9.54749 5.39337 10.7214 6.25823 12.0617C7.12309 13.4019 8.37066 14.8018 10.0009 16.2612ZM10.0009 17.4502C9.83858 17.4502 9.67622 17.4222 9.51385 17.3662C9.35135 17.3101 9.20441 17.2233 9.07302 17.1058C8.32524 16.4167 7.62545 15.7069 6.97365 14.9767C6.32198 14.2465 5.75552 13.5166 5.27427 12.7869C4.79288 12.0571 4.41198 11.3339 4.13156 10.6171C3.85115 9.90013 3.71094 9.20777 3.71094 8.53999C3.71094 6.61694 4.33295 5.06006 5.57698 3.86937C6.82115 2.67868 8.2958 2.08333 10.0009 2.08333C11.7061 2.08333 13.1807 2.67868 14.4249 3.86937C15.6689 5.06006 16.2909 6.61694 16.2909 8.53999C16.2909 9.20777 16.1507 9.89875 15.8703 10.6129C15.5899 11.3272 15.2104 12.0506 14.7318 12.7829C14.253 13.5153 13.6878 14.2452 13.0361 14.9727C12.3845 15.7003 11.6847 16.4087 10.9368 17.0977C10.8073 17.2152 10.6602 17.3033 10.4953 17.3621C10.3306 17.4208 10.1658 17.4502 10.0009 17.4502ZM10.0024 9.8877C10.417 9.8877 10.7714 9.74007 11.0657 9.44479C11.3602 9.14951 11.5074 8.79458 11.5074 8.37999C11.5074 7.96541 11.3598 7.6109 11.0645 7.31645C10.7692 7.02215 10.4142 6.875 9.99948 6.875C9.5849 6.875 9.23045 7.02263 8.93615 7.31791C8.6417 7.61319 8.49448 7.96819 8.49448 8.38291C8.49448 8.7975 8.64212 9.15194 8.9374 9.44625C9.23267 9.74055 9.58767 9.8877 10.0024 9.8877Z" fill="white"/>
</g>
</svg>
