<svg width="25" height="24" viewBox="0 0 25 24" fill="none" xmlns="http://www.w3.org/2000/svg">
<mask id="mask0_102_6025" style="mask-type:alpha" maskUnits="userSpaceOnUse" x="0" y="0" width="25" height="24">
<rect x="0.5" width="24" height="24" fill="#D9D9D9"/>
</mask>
<g mask="url(#mask0_102_6025)">
<path d="M6.5 21C6.21667 21 5.97917 20.9042 5.7875 20.7125C5.59583 20.5208 5.5 20.2833 5.5 20C5.5 19.7167 5.59583 19.4792 5.7875 19.2875C5.97917 19.0958 6.21667 19 6.5 19H20.5C20.7833 19 21.0208 19.0958 21.2125 19.2875C21.4042 19.4792 21.5 19.7167 21.5 20C21.5 20.2833 21.4042 20.5208 21.2125 20.7125C21.0208 20.9042 20.7833 21 20.5 21H6.5ZM9.5 17C8.4 17 7.45833 16.6083 6.675 15.825C5.89167 15.0417 5.5 14.1 5.5 13V5C5.5 4.45 5.69583 3.97917 6.0875 3.5875C6.47917 3.19583 6.95 3 7.5 3H21.5C22.05 3 22.5208 3.19583 22.9125 3.5875C23.3042 3.97917 23.5 4.45 23.5 5V8C23.5 8.55 23.3042 9.02083 22.9125 9.4125C22.5208 9.80417 22.05 10 21.5 10H19.5V13C19.5 14.1 19.1083 15.0417 18.325 15.825C17.5417 16.6083 16.6 17 15.5 17H9.5ZM9.5 15H15.5C16.05 15 16.5208 14.8042 16.9125 14.4125C17.3042 14.0208 17.5 13.55 17.5 13V5H7.5V13C7.5 13.55 7.69583 14.0208 8.0875 14.4125C8.47917 14.8042 8.95 15 9.5 15ZM19.5 8H21.5V5H19.5V8ZM9.5 15H7.5H17.5H9.5Z" fill="white"/>
</g>
</svg>
