<svg width="25" height="24" viewBox="0 0 25 24" fill="none" xmlns="http://www.w3.org/2000/svg">
<mask id="mask0_102_6013" style="mask-type:alpha" maskUnits="userSpaceOnUse" x="0" y="0" width="25" height="24">
<rect x="0.5" width="24" height="24" fill="#D9D9D9"/>
</mask>
<g mask="url(#mask0_102_6013)">
<path d="M10.5 21C9.4 21 8.45833 20.6083 7.675 19.825C6.89167 19.0417 6.5 18.1 6.5 17C6.5 15.9 6.89167 14.9583 7.675 14.175C8.45833 13.3917 9.4 13 10.5 13C10.8833 13 11.2375 13.0458 11.5625 13.1375C11.8875 13.2292 12.2 13.3667 12.5 13.55V4C12.5 3.71667 12.5958 3.47917 12.7875 3.2875C12.9792 3.09583 13.2167 3 13.5 3H17.5C17.7833 3 18.0208 3.09583 18.2125 3.2875C18.4042 3.47917 18.5 3.71667 18.5 4V6C18.5 6.28333 18.4042 6.52083 18.2125 6.7125C18.0208 6.90417 17.7833 7 17.5 7H14.5V17C14.5 18.1 14.1083 19.0417 13.325 19.825C12.5417 20.6083 11.6 21 10.5 21Z" fill="white"/>
</g>
</svg>
