<svg width="24" height="24" viewBox="0 0 24 24" fill="none" xmlns="http://www.w3.org/2000/svg">
<mask id="mask0_102_5807" style="mask-type:alpha" maskUnits="userSpaceOnUse" x="0" y="0" width="24" height="24">
<rect width="24" height="24" fill="#D9D9D9"/>
</mask>
<g mask="url(#mask0_102_5807)">
<path d="M12 11.9999C10.9 11.9999 9.95833 11.6082 9.175 10.8249C8.39167 10.0416 8 9.09991 8 7.99991C8 6.89991 8.39167 5.95824 9.175 5.17491C9.95833 4.39158 10.9 3.99991 12 3.99991C13.1 3.99991 14.0417 4.39158 14.825 5.17491C15.6083 5.95824 16 6.89991 16 7.99991C16 9.09991 15.6083 10.0416 14.825 10.8249C14.0417 11.6082 13.1 11.9999 12 11.9999ZM4 17.9999V17.1999C4 16.6332 4.14583 16.1124 4.4375 15.6374C4.72917 15.1624 5.11667 14.7999 5.6 14.5499C6.63333 14.0332 7.68333 13.6457 8.75 13.3874C9.81667 13.1291 10.9 12.9999 12 12.9999C13.1 12.9999 14.1833 13.1291 15.25 13.3874C16.3167 13.6457 17.3667 14.0332 18.4 14.5499C18.8833 14.7999 19.2708 15.1624 19.5625 15.6374C19.8542 16.1124 20 16.6332 20 17.1999V17.9999C20 18.5499 19.8042 19.0207 19.4125 19.4124C19.0208 19.8041 18.55 19.9999 18 19.9999H6C5.45 19.9999 4.97917 19.8041 4.5875 19.4124C4.19583 19.0207 4 18.5499 4 17.9999ZM6 17.9999H18V17.1999C18 17.0166 17.9542 16.8499 17.8625 16.6999C17.7708 16.5499 17.65 16.4332 17.5 16.3499C16.6 15.8999 15.6917 15.5624 14.775 15.3374C13.8583 15.1124 12.9333 14.9999 12 14.9999C11.0667 14.9999 10.1417 15.1124 9.225 15.3374C8.30833 15.5624 7.4 15.8999 6.5 16.3499C6.35 16.4332 6.22917 16.5499 6.1375 16.6999C6.04583 16.8499 6 17.0166 6 17.1999V17.9999ZM12 9.99991C12.55 9.99991 13.0208 9.80408 13.4125 9.41241C13.8042 9.02074 14 8.54991 14 7.99991C14 7.44991 13.8042 6.97908 13.4125 6.58741C13.0208 6.19574 12.55 5.99991 12 5.99991C11.45 5.99991 10.9792 6.19574 10.5875 6.58741C10.1958 6.97908 10 7.44991 10 7.99991C10 8.54991 10.1958 9.02074 10.5875 9.41241C10.9792 9.80408 11.45 9.99991 12 9.99991Z" fill="white"/>
</g>
</svg>
